<svg id="Layer_1" data-name="Layer 1" xmlns="http://www.w3.org/2000/svg" viewBox="0 0 64 64"><title>salt</title><path d="M38.9,50.38a3,3,0,0,1-2.12-.87l-5.66-5.66a1,1,0,0,1-.29-.71,1,1,0,0,1,.29-.7L42.44,31.12a1,1,0,0,1,1.41,0l5.66,5.66a3,3,0,0,1,0,4.24L41,49.51A3,3,0,0,1,38.9,50.38Zm-5.66-7.24,4.95,5a1,1,0,0,0,1.42,0l8.48-8.48a1,1,0,0,0,0-1.42l-5-4.95Z" id="id_107" style="fill: rgb(255, 255, 255);"></path><path d="M31.83,44.14a1.15,1.15,0,0,1-.41-.08L8.64,33.93A5,5,0,0,1,5.7,28.81l.94-8.43a5,5,0,0,1,1.43-3h0L17.4,8.07a5,5,0,0,1,3-1.43l8.43-.94a5,5,0,0,1,5.12,2.94L44.06,31.42a1,1,0,0,1-.21,1.12L32.54,43.85A1,1,0,0,1,31.83,44.14ZM9.49,18.82a3,3,0,0,0-.86,1.79L7.69,29A3,3,0,0,0,9.45,32.1L31.61,42,42,31.61,32.1,9.45A3,3,0,0,0,29,7.69l-8.42.94a2.94,2.94,0,0,0-1.79.86L9.49,18.82Z" id="id_108" style="fill: rgb(255, 255, 255);"></path><path d="M48,51a3,3,0,1,1,3-3A3,3,0,0,1,48,51Zm0-4a1,1,0,1,0,1,1A1,1,0,0,0,48,47Z" id="id_109" style="fill: rgb(255, 255, 255);"></path><path d="M49,60a3,3,0,1,1,3-3A3,3,0,0,1,49,60Zm0-4a1,1,0,1,0,1,1A1,1,0,0,0,49,56Z" id="id_110" style="fill: rgb(255, 255, 255);"></path><path d="M57,52a3,3,0,1,1,3-3A3,3,0,0,1,57,52Zm0-4a1,1,0,1,0,1,1A1,1,0,0,0,57,48Z" id="id_111" style="fill: rgb(255, 255, 255);"></path><path d="M58,61a3,3,0,1,1,3-3A3,3,0,0,1,58,61Zm0-4a1,1,0,1,0,1,1A1,1,0,0,0,58,57Z" id="id_112" style="fill: rgb(255, 255, 255);"></path></svg>